# xmcd
#
# Track frame offsets:
#	150
#	19073
#	35751
#	51885
#	67285
#	85211
#	103183
#	117293
#	135570
#	154159
#	173285
#	188303
#	206827
#	222753
#	241551
#
# Disc length: 3464 seconds
#
# Revision: 3
# Processed by: cddbd v1.5.2PL0 Copyright (c) Steve Scherf et al.
# Submitted via: audiograbber 1.83.01
#
DISCID=c80d860f
DTITLE=Chris Spedding - One Step Ahead Of The Blues
DYEAR=2009
DGENRE=Blues
TTITLE0=Cajun Moon
TTITLE1=I Wouldn't Treat A Dog
TTITLE2=No Expectations
TTITLE3=Remember
TTITLE4=Riverboat
TTITLE5=Go To The Mardi Gras
TTITLE6=Albatros
TTITLE7=One Step Ahead Of The Blues
TTITLE8=Mother Earth
TTITLE9=Dollar Of My Pain
TTITLE10=Young Man Blues
TTITLE11=Lonely Avenue
TTITLE12=The Stinble (bonus track)
TTITLE13=No Time (bonus track)
TTITLE14=Bright Lights, Big City (bonus track)
EXTD=
EXTT0=
EXTT1=
EXTT2=
EXTT3=
EXTT4=
EXTT5=
EXTT6=
EXTT7=
EXTT8=
EXTT9=
EXTT10=
EXTT11=
EXTT12=
EXTT13=
EXTT14=
PLAYORDER=
